<?xml version="1.0" standalone="no"?>
<!DOCTYPE svg PUBLIC "-//W3C//DTD SVG 20010904//EN"
 "http://www.w3.org/TR/2001/REC-SVG-20010904/DTD/svg10.dtd">
<svg version="1.0" xmlns="http://www.w3.org/2000/svg"
 width="300.000000pt" height="300.000000pt" viewBox="0 0 300.000000 300.000000"
 preserveAspectRatio="xMidYMid meet">
<metadata>
Created by potrace 1.11, written by Peter Selinger 2001-2013
</metadata>
<g transform="translate(0.000000,300.000000) scale(0.100000,-0.100000)"
fill="#000000" stroke="none">
<path d="M0 1500 l0 -750 1500 0 1500 0 0 750 0 750 -1500 0 -1500 0 0 -750z
m2308 553 l-3 -28 -1017 -3 -1018 -2 0 30 0 30 1021 0 1020 0 -3 -27z m152
-435 c217 -514 229 -537 257 -544 14 -4 23 -14 23 -25 0 -18 -9 -19 -120 -19
-112 0 -120 1 -120 19 0 14 8 21 28 23 39 4 35 28 -40 203 l-63 150 -161 3
-161 2 -32 -81 c-33 -86 -31 -109 10 -109 12 0 19 -7 19 -19 0 -18 -9 -20 -92
-23 -51 -2 -155 -2 -230 0 -128 3 -138 5 -138 23 0 14 7 19 29 19 54 0 56 9
59 309 2 152 -1 294 -5 316 -8 35 -13 41 -46 49 -26 7 -37 15 -37 28 0 17 11
18 145 18 138 0 145 -1 145 -20 0 -14 -7 -20 -23 -20 -12 0 -33 -7 -45 -16
-22 -15 -22 -16 -22 -324 0 -339 0 -340 60 -340 66 0 59 -13 235 423 112 274
132 317 150 317 18 0 42 -50 175 -362z m-1900 317 c0 -19 -5 -25 -22 -25 -35
0 -49 -14 -58 -56 -5 -21 -10 -183 -10 -359 0 -176 5 -338 10 -359 9 -42 23
-56 58 -56 17 0 22 -6 22 -25 l0 -25 -145 0 -145 0 0 25 c0 20 5 25 27 25 14
0 35 7 45 17 17 15 18 41 18 396 0 419 0 417 -62 417 -23 0 -28 4 -28 25 l0
25 145 0 145 0 0 -25z m543 5 c26 -7 47 -17 48 -24 0 -6 3 -41 8 -78 l7 -68
-28 0 c-20 0 -28 5 -28 18 0 28 -37 81 -71 101 -18 11 -53 22 -79 26 -100 14
-187 -40 -241 -151 -30 -60 -33 -77 -37 -178 -3 -86 0 -127 13 -172 34 -119
105 -195 198 -213 53 -10 129 1 164 24 24 16 63 84 63 110 0 8 9 15 20 15 18
0 20 -7 20 -69 l0 -69 -52 -22 c-227 -98 -464 -3 -529 211 -31 101 -25 268 13
349 45 100 123 167 227 197 54 15 211 11 284 -7z m477 1 c0 -14 -10 -21 -35
-25 -19 -4 -38 -12 -42 -19 -4 -7 -10 -178 -13 -382 -5 -350 -6 -372 -26 -410
-30 -57 -88 -85 -176 -85 -38 0 -84 7 -103 14 l-35 15 0 70 c0 64 2 71 20 71
14 0 21 -9 26 -37 12 -68 69 -106 124 -83 53 22 55 34 58 437 3 364 2 373 -18
393 -11 11 -31 20 -45 20 -18 0 -25 5 -25 20 0 19 7 20 145 20 135 0 145 -1
145 -19z m1160 -1001 l0 -30 -1235 0 -1235 0 0 30 0 30 1235 0 1235 0 0 -30z"/>
<path d="M2265 1767 c-42 -101 -115 -280 -115 -283 0 -2 61 -4 135 -4 74 0
135 4 135 8 0 10 -111 268 -128 298 -10 17 -12 16 -27 -19z"/>
</g>
</svg>
